<?xml version="1.0" standalone="no"?>
<!DOCTYPE svg PUBLIC "-//W3C//DTD SVG 20010904//EN"
 "http://www.w3.org/TR/2001/REC-SVG-20010904/DTD/svg10.dtd">
<svg version="1.0" xmlns="http://www.w3.org/2000/svg"
 width="260.000000pt" height="260.000000pt" viewBox="0 0 260.000000 260.000000"
 preserveAspectRatio="xMidYMid meet">
<metadata>
Created by potrace 1.14, written by Peter Selinger 2001-2017
</metadata>
<g transform="translate(0.000000,260.000000) scale(0.100000,-0.100000)"
fill="#000000" stroke="none">
<path d="M284 2460 c-31 -69 -67 -147 -79 -175 -13 -27 -53 -117 -90 -200 -37
-82 -77 -172 -89 -199 l-23 -49 223 -316 c123 -174 227 -320 231 -326 5 -5 58
-80 118 -165 60 -85 206 -292 325 -460 310 -437 341 -481 365 -516 19 -28 23
-30 40 -18 10 8 15 14 9 14 -5 0 -2 6 6 13 8 7 35 41 59 77 25 36 50 68 55 72
7 5 7 8 1 8 -5 0 -1 7 9 15 11 8 17 15 13 15 -4 0 1 8 11 18 9 10 24 29 32 42
8 13 23 32 33 42 9 10 16 19 15 21 -6 7 70 106 77 99 4 -4 5 1 2 11 -4 9 -3
17 2 17 4 0 30 32 56 72 50 75 59 87 88 119 9 10 16 20 15 22 -4 6 56 87 65
87 6 0 8 3 4 6 -3 3 12 29 34 57 21 29 39 56 39 60 0 5 5 5 10 2 6 -4 10 -3 9
2 -3 18 2 30 19 49 9 10 35 45 56 77 22 31 43 57 48 57 4 0 8 6 8 13 0 11 50
85 96 140 7 9 14 22 14 27 0 6 4 10 9 10 5 0 16 16 26 36 9 19 23 38 31 41 8
3 14 9 14 13 0 17 73 115 84 112 6 -2 8 0 4 4 -7 7 26 62 47 76 5 4 6 8 2 8
-4 0 4 12 18 27 14 15 25 32 25 37 0 5 16 28 35 52 19 23 35 47 35 54 0 6 5 8
10 5 6 -3 10 -1 10 5 0 6 10 24 21 40 21 28 21 30 5 55 -9 14 -14 30 -11 35 3
6 1 10 -5 10 -7 0 -10 7 -6 15 3 8 0 14 -6 12 -7 -1 -13 3 -13 8 -4 28 -18 65
-26 65 -4 0 -6 9 -4 20 2 11 0 18 -4 15 -10 -6 -21 18 -21 46 0 11 -4 17 -10
14 -5 -3 -11 1 -11 9 -1 9 -3 19 -4 24 -2 4 -6 17 -10 30 -4 12 -11 22 -16 22
-5 0 -9 9 -9 19 0 11 -5 23 -11 26 -6 4 -8 13 -5 21 3 7 1 16 -4 19 -5 3 -17
23 -26 43 -9 20 -29 64 -45 97 -15 34 -29 67 -31 75 -2 8 -9 21 -16 28 -7 8
-11 19 -9 26 2 6 -3 18 -11 26 -14 13 -133 15 -964 15 l-948 0 -56 -125z m791
-79 c3 0 -9 -18 -27 -38 -78 -88 -115 -128 -145 -160 -18 -18 -31 -33 -29 -33
2 0 -16 -20 -39 -45 -24 -24 -56 -59 -72 -77 -15 -18 -27 -31 -26 -29 2 2 -2
10 -8 18 -6 7 -8 13 -4 13 4 0 2 7 -5 15 -6 8 -8 20 -4 26 5 8 3 9 -6 4 -10
-6 -12 -3 -8 13 4 12 2 22 -4 22 -5 0 -6 5 -3 10 3 6 2 10 -4 10 -5 0 -8 9 -6
20 2 11 0 18 -6 15 -9 -6 -13 7 -10 33 1 6 -2 12 -7 12 -5 0 -9 6 -10 13 -1
15 -7 38 -15 57 -17 39 -35 99 -32 102 4 3 458 3 470 -1z m899 -2 c6 -6 -117
-365 -129 -377 -3 -4 -9 -1 -13 5 -9 15 -88 105 -137 158 -83 89 -103 114 -97
119 3 3 -2 6 -11 6 -9 0 -17 3 -17 8 0 4 -14 22 -30 41 -17 18 -28 36 -26 40
5 8 452 9 460 0z m-1526 -58 c1 -9 17 -59 37 -111 20 -52 37 -102 39 -110 2
-8 13 -40 25 -70 34 -90 43 -85 -139 -84 -88 0 -161 2 -164 5 -2 2 3 20 11 39
9 19 17 37 18 40 1 3 8 19 15 35 7 17 13 33 12 38 -1 4 3 7 10 7 6 0 8 3 5 7
-4 3 -2 12 4 20 6 7 8 13 5 13 -4 0 0 7 8 16 9 8 14 19 11 24 -3 4 2 13 10 20
8 7 12 16 9 21 -3 5 -1 9 4 9 5 0 9 6 9 13 0 6 10 33 22 59 18 36 26 44 35 36
7 -6 13 -19 14 -27z m910 -43 c5 -9 63 -75 225 -252 16 -17 37 -42 47 -56 l18
-25 -354 0 c-195 0 -354 3 -354 7 0 4 12 20 28 36 15 17 47 53 72 82 25 28 72
80 106 116 34 35 59 64 57 64 -2 0 10 15 26 33 17 17 31 36 31 40 0 5 5 5 10
2 6 -3 10 2 10 11 0 14 8 10 37 -17 21 -18 39 -37 41 -41z m832 20 c13 -29 24
-55 25 -58 2 -6 30 -69 65 -145 47 -102 60 -138 55 -143 -6 -7 -294 -10 -312
-4 -17 5 -16 15 4 60 9 20 15 43 14 50 -1 6 3 12 9 12 5 0 9 3 9 8 -1 4 0 10
1 15 1 4 3 10 4 15 4 17 39 118 45 127 3 6 7 18 8 28 2 10 10 31 18 46 8 16
11 31 8 35 -4 3 1 6 9 6 9 0 25 -22 38 -52z m-1850 -547 c0 9 3 10 8 4 7 -10
203 -15 197 -4 -7 10 59 -3 74 -15 11 -8 13 -8 7 2 -4 7 -1 12 8 12 14 0 17
-4 16 -25 0 -3 6 -18 14 -34 9 -16 12 -31 9 -35 -4 -3 -1 -6 5 -6 7 0 11 -3
10 -7 -1 -5 4 -21 10 -36 7 -15 11 -31 10 -35 -1 -4 6 -22 15 -39 10 -18 15
-33 11 -33 -4 0 -1 -7 6 -15 7 -8 10 -15 7 -15 -3 0 2 -19 13 -42 10 -23 16
-46 14 -50 -3 -4 0 -8 7 -8 6 0 9 -8 6 -20 -3 -11 -1 -20 5 -20 5 0 6 -4 3
-10 -3 -5 -1 -10 4 -10 6 0 11 -9 11 -19 0 -11 5 -23 11 -26 6 -4 8 -13 5 -21
-3 -8 0 -14 6 -14 6 0 8 -3 5 -7 -4 -3 -3 -11 2 -17 9 -11 35 -98 31 -105 -1
-2 3 -7 9 -10 6 -4 12 -19 13 -34 1 -15 6 -27 10 -27 4 0 8 -8 8 -18 0 -10 5
-23 12 -30 9 -9 9 -12 -2 -12 -8 0 -5 -7 8 -18 15 -13 18 -22 12 -30 -6 -7 -7
-10 -3 -7 6 5 34 -63 55 -135 5 -19 15 -41 20 -48 8 -9 7 -11 -3 -7 -8 4 -24
22 -36 41 -13 19 -19 33 -15 30 5 -3 9 1 9 8 0 8 -6 12 -12 10 -14 -6 -49 42
-41 55 3 5 -2 8 -12 7 -9 0 -16 4 -15 11 2 7 -9 24 -23 38 -17 17 -24 32 -19
43 3 9 3 13 -1 10 -8 -8 -34 14 -27 25 2 4 -3 7 -12 7 -9 0 -13 5 -10 10 3 6
1 10 -5 10 -6 0 -9 4 -6 8 3 5 -4 14 -14 22 -10 8 -17 17 -14 22 3 4 0 8 -6 8
-7 0 -9 7 -6 17 4 10 4 14 0 10 -8 -8 -61 50 -70 76 -3 9 -11 17 -17 17 -7 0
-6 4 3 10 11 7 11 10 2 10 -7 0 -10 5 -7 10 4 6 3 10 -2 9 -18 -4 -41 13 -36
27 3 9 -2 14 -13 15 -12 0 -14 3 -6 6 9 3 7 10 -9 24 -13 11 -19 25 -15 34 3
9 2 13 -4 10 -6 -4 -17 1 -26 10 -12 12 -13 19 -4 29 9 12 7 13 -8 9 -15 -3
-23 3 -33 26 -8 17 -17 31 -21 31 -5 0 -8 7 -8 15 0 9 -7 18 -15 22 -9 3 -23
19 -31 36 -9 17 -27 42 -40 56 -22 24 -23 26 -6 45 16 20 16 20 0 7 -15 -11
-19 -11 -24 3 -3 9 -10 13 -15 10 -5 -3 -9 2 -9 10 0 9 -5 16 -11 16 -8 0 -7
5 1 15 7 9 10 18 6 22 -3 3 -6 1 -6 -5 0 -7 -5 -12 -11 -12 -5 0 -7 5 -4 10 3
6 1 10 -4 10 -6 0 -11 5 -11 11 0 5 5 7 10 4 6 -3 10 -1 10 6 0 8 4 8 15 -1
12 -10 15 -10 15 1z m690 -5 c87 0 157 2 155 5 -2 3 9 3 25 1 17 -2 28 -7 25
-11 -2 -4 2 -8 9 -8 8 0 12 7 9 16 -3 11 0 10 11 -3 9 -11 16 -15 16 -9 0 7
34 10 93 10 52 0 99 3 105 7 8 4 12 0 12 -11 0 -11 3 -14 8 -7 10 16 252 15
252 0 0 -6 -13 -43 -29 -82 -16 -38 -32 -84 -36 -102 -4 -19 -11 -29 -17 -26
-7 5 -8 2 -4 -5 11 -18 -14 -76 -26 -59 -5 8 -6 2 -2 -15 4 -16 2 -38 -4 -50
-14 -31 -37 -91 -37 -99 0 -3 -3 -10 -7 -14 -5 -4 -8 -18 -8 -31 0 -13 -6 -23
-13 -23 -8 0 -13 -10 -12 -22 1 -13 -6 -42 -16 -65 -10 -22 -15 -44 -12 -47 4
-3 2 -6 -4 -6 -5 0 -10 -6 -10 -12 -2 -23 -39 -116 -54 -134 -7 -10 -9 -15 -2
-11 7 5 9 0 6 -13 -3 -11 -10 -20 -15 -20 -5 0 -7 -4 -4 -9 3 -5 -1 -22 -9
-37 -8 -16 -15 -36 -15 -45 0 -9 -3 -19 -7 -23 -4 -3 -8 -16 -10 -28 -2 -12
-8 -27 -14 -35 -6 -7 -8 -13 -3 -13 5 -1 -2 -8 -16 -16 -14 -8 -18 -13 -9 -11
12 4 7 -19 -24 -104 -33 -90 -42 -107 -54 -97 -11 9 -11 13 -1 19 9 6 7 9 -7
9 -19 1 -19 1 -2 14 16 12 16 14 2 20 -11 4 -14 2 -9 -6 4 -7 3 -8 -4 -4 -17
10 -16 49 1 41 6 -4 1 3 -13 15 -14 12 -18 18 -10 14 12 -6 12 -4 -1 12 -9 10
-14 25 -11 33 3 9 0 11 -8 6 -9 -6 -12 -4 -8 6 3 8 0 23 -8 34 -10 13 -11 22
-3 31 7 8 6 14 -2 20 -8 5 -10 3 -4 -7 5 -8 4 -11 -1 -6 -17 16 -33 86 -20 91
6 2 3 5 -6 5 -9 1 -20 6 -24 13 -4 7 -3 8 4 4 8 -5 10 -2 6 8 -3 9 -11 13 -18
9 -6 -4 -5 1 3 10 7 9 9 17 3 17 -5 0 -16 20 -23 45 -7 25 -17 45 -22 45 -4 0
-3 9 3 19 7 14 7 22 -2 27 -7 5 -8 3 -3 -7 5 -8 5 -11 1 -7 -4 3 -8 10 -8 15
0 4 -5 14 -11 22 -9 12 -9 13 1 7 6 -4 12 -2 12 3 0 6 -7 11 -16 11 -8 0 -12
5 -9 10 3 6 1 10 -4 10 -6 0 -11 4 -11 10 0 5 6 7 14 4 8 -3 17 0 22 7 4 8 3
10 -5 5 -17 -11 -40 12 -36 35 2 10 0 19 -5 19 -4 0 -11 7 -14 16 -3 8 -2 12
4 9 6 -3 7 1 4 9 -3 9 -10 13 -15 10 -5 -3 -9 4 -9 15 0 11 -4 22 -10 26 -5 3
-7 12 -3 20 3 9 -1 15 -8 15 -11 0 -11 3 1 10 11 7 11 10 2 10 -7 0 -10 5 -7
10 3 6 2 10 -3 10 -5 0 -12 9 -15 21 -4 14 -2 18 7 12 6 -4 3 0 -7 10 -13 12
-15 17 -6 17 9 0 10 3 4 8 -18 13 -38 60 -32 76 3 8 1 18 -5 22 -7 5 -8 2 -3
-7 5 -8 4 -11 -1 -6 -5 5 -7 9 -5 10 2 1 -1 12 -7 24 -9 16 -9 23 1 26 7 3 5
6 -5 6 -12 1 -18 9 -18 25 0 14 -5 28 -11 32 -6 3 -9 14 -6 24 3 11 -1 21 -8
24 -7 2 -15 16 -17 30 -3 16 -1 23 6 20 6 -3 4 0 -4 8 -8 7 -16 19 -18 27 -3
12 0 12 13 1 13 -11 14 -10 9 5 -5 13 -4 16 5 10 7 -4 84 -8 171 -9z m1045 0
c44 -1 72 2 68 7 -3 5 3 5 13 -1 13 -7 25 -7 37 0 13 6 17 6 13 0 -3 -5 1 -13
10 -16 10 -4 13 -2 8 6 -5 8 1 9 20 4 18 -4 25 -3 21 3 -3 7 0 8 9 5 18 -7 22
-34 5 -34 -5 0 -7 -4 -4 -10 3 -5 2 -10 -4 -10 -5 0 -20 -18 -32 -40 -13 -22
-25 -40 -29 -40 -3 0 -14 -16 -24 -35 -11 -19 -23 -35 -28 -35 -4 0 -8 -6 -8
-12 0 -7 -14 -29 -30 -48 -16 -19 -34 -40 -40 -47 -5 -7 -10 -15 -10 -18 0 -8
-52 -78 -65 -87 -5 -4 -6 -8 -2 -8 4 0 3 -6 -3 -12 -6 -7 -19 -24 -30 -36 -12
-15 -24 -21 -32 -16 -10 6 -11 5 -1 -7 10 -13 7 -21 -16 -47 -16 -17 -27 -33
-25 -35 2 -2 -7 -16 -20 -30 -14 -15 -27 -36 -31 -47 -4 -11 -11 -18 -16 -15
-8 6 -13 -9 -10 -29 1 -5 -5 -6 -13 -3 -10 4 -14 0 -11 -14 2 -12 -2 -19 -11
-19 -8 0 -12 -5 -9 -10 3 -6 -1 -13 -9 -16 -9 -3 -16 -11 -16 -18 0 -6 -17
-34 -38 -61 -21 -28 -41 -58 -45 -68 -4 -11 -12 -15 -19 -11 -7 4 -10 4 -6 -1
4 -4 -7 -28 -24 -54 -31 -44 -67 -86 -56 -66 2 6 11 25 18 43 8 17 18 32 22
32 4 0 4 7 1 17 -4 10 -2 14 4 10 6 -4 9 4 7 19 -3 30 28 88 42 76 4 -4 3 0
-3 9 -10 12 -9 21 1 41 8 15 12 29 8 32 -3 3 0 6 6 6 6 0 9 9 7 20 -2 12 5 30
15 40 22 22 26 35 8 24 -7 -4 -3 6 9 22 11 16 20 36 21 44 2 46 7 60 19 56 18
-7 27 13 13 29 -12 15 -3 21 23 16 5 -1 6 3 2 9 -3 6 -12 7 -18 3 -7 -4 -4 6
7 21 10 16 13 25 6 21 -9 -5 -8 -1 1 16 7 13 12 28 11 33 -2 5 7 6 20 3 19 -5
21 -4 8 6 -19 15 -19 43 0 39 10 -2 11 0 2 11 -17 20 9 53 34 44 17 -6 17 -6
3 5 -20 16 -16 44 9 72 11 11 19 32 17 46 -1 14 5 31 14 38 9 8 10 11 4 7 -18
-9 -16 20 2 38 8 8 11 17 8 21 -4 3 0 6 8 6 11 0 11 2 -1 10 -13 8 -12 10 3
10 9 0 17 5 17 11 0 5 -4 7 -10 4 -5 -3 -10 -1 -10 4 0 12 11 14 48 13 14 -1
20 3 16 10 -4 7 -3 8 5 4 6 -4 45 -9 86 -10z m-195 -185 c0 -6 -4 -13 -10 -16
-5 -3 -10 1 -10 9 0 9 5 16 10 16 6 0 10 -4 10 -9z"/>
<path d="M510 1736 c0 -2 8 -10 18 -17 15 -13 16 -12 3 4 -13 16 -21 21 -21
13z"/>
<path d="M367 1719 c7 -7 15 -10 18 -7 3 3 -2 9 -12 12 -14 6 -15 5 -6 -5z"/>
<path d="M590 1701 c0 -6 4 -13 10 -16 6 -3 7 1 4 9 -7 18 -14 21 -14 7z"/>
<path d="M480 1675 c-7 -9 -11 -17 -9 -20 3 -2 10 5 17 15 14 24 10 26 -8 5z"/>
<path d="M599 1633 c-13 -17 -13 -17 6 -3 11 8 22 16 24 17 2 2 0 3 -6 3 -6 0
-17 -8 -24 -17z"/>
<path d="M510 1579 c0 -5 5 -7 10 -4 6 3 10 8 10 11 0 2 -4 4 -10 4 -5 0 -10
-5 -10 -11z"/>
<path d="M636 1507 c3 -10 9 -15 12 -12 3 3 0 11 -7 18 -10 9 -11 8 -5 -6z"/>
<path d="M590 1461 c0 -6 4 -13 10 -16 6 -3 7 1 4 9 -7 18 -14 21 -14 7z"/>
<path d="M675 1460 c-3 -5 -1 -10 4 -10 6 0 11 5 11 10 0 6 -2 10 -4 10 -3 0
-8 -4 -11 -10z"/>
<path d="M500 1446 c0 -2 8 -10 18 -17 15 -13 16 -12 3 4 -13 16 -21 21 -21
13z"/>
<path d="M599 1393 c-13 -16 -12 -17 4 -4 9 7 17 15 17 17 0 8 -8 3 -21 -13z"/>
<path d="M679 1393 c-13 -16 -12 -17 4 -4 9 7 17 15 17 17 0 8 -8 3 -21 -13z"/>
<path d="M790 1260 c0 -5 5 -10 11 -10 5 0 7 5 4 10 -3 6 -8 10 -11 10 -2 0
-4 -4 -4 -10z"/>
<path d="M700 1206 c0 -2 8 -10 18 -17 15 -13 16 -12 3 4 -13 16 -21 21 -21
13z"/>
<path d="M786 1202 c-2 -4 4 -8 14 -8 10 0 16 4 14 8 -3 4 -9 8 -14 8 -5 0
-11 -4 -14 -8z"/>
<path d="M930 860 c0 -5 5 -10 11 -10 5 0 7 5 4 10 -3 6 -8 10 -11 10 -2 0 -4
-4 -4 -10z"/>
<path d="M1150 1736 c0 -2 8 -10 18 -17 15 -13 16 -12 3 4 -13 16 -21 21 -21
13z"/>
<path d="M1120 1675 c-7 -9 -11 -17 -9 -20 3 -2 10 5 17 15 14 24 10 26 -8 5z"/>
<path d="M1266 1682 c-3 -5 1 -9 9 -9 8 0 12 4 9 9 -3 4 -7 8 -9 8 -2 0 -6 -4
-9 -8z"/>
<path d="M1535 1680 c3 -5 8 -10 11 -10 2 0 4 5 4 10 0 6 -5 10 -11 10 -5 0
-7 -4 -4 -10z"/>
<path d="M915 1660 c3 -5 8 -10 11 -10 2 0 4 5 4 10 0 6 -5 10 -11 10 -5 0 -7
-4 -4 -10z"/>
<path d="M1395 1660 c3 -5 8 -10 11 -10 2 0 4 5 4 10 0 6 -5 10 -11 10 -5 0
-7 -4 -4 -10z"/>
<path d="M1642 1644 c10 -10 20 -16 22 -13 3 3 -5 11 -17 18 -21 13 -21 12 -5
-5z"/>
<path d="M1556 1613 c-6 -14 -5 -15 5 -6 7 7 10 15 7 18 -3 3 -9 -2 -12 -12z"/>
<path d="M922 1604 c10 -10 20 -16 22 -13 3 3 -5 11 -17 18 -21 13 -21 12 -5
-5z"/>
<path d="M1635 1589 c-4 -6 -5 -12 -2 -15 2 -3 7 2 10 11 7 17 1 20 -8 4z"/>
<path d="M1291 1567 c2 -1 13 -9 24 -17 19 -14 19 -14 6 3 -7 9 -18 17 -24 17
-6 0 -8 -1 -6 -3z"/>
<path d="M1399 1553 c-13 -17 -13 -17 6 -3 11 8 22 16 24 17 2 2 0 3 -6 3 -6
0 -17 -8 -24 -17z"/>
<path d="M1075 1541 c-3 -5 -2 -12 3 -15 5 -3 9 1 9 9 0 17 -3 19 -12 6z"/>
<path d="M1510 1536 c0 -2 8 -10 18 -17 15 -13 16 -12 3 4 -13 16 -21 21 -21
13z"/>
<path d="M1210 1526 c0 -2 7 -7 16 -10 8 -3 12 -2 9 4 -6 10 -25 14 -25 6z"/>
<path d="M1456 1518 c3 -5 10 -6 15 -3 13 9 11 12 -6 12 -8 0 -12 -4 -9 -9z"/>
<path d="M986 1485 c-11 -8 -15 -15 -9 -15 6 0 16 7 23 15 16 19 11 19 -14 0z"/>
<path d="M1127 1479 c7 -7 15 -10 18 -7 3 3 -2 9 -12 12 -14 6 -15 5 -6 -5z"/>
<path d="M1436 1467 c3 -10 9 -15 12 -12 3 3 0 11 -7 18 -10 9 -11 8 -5 -6z"/>
<path d="M1070 1460 c0 -5 5 -10 11 -10 5 0 7 5 4 10 -3 6 -8 10 -11 10 -2 0
-4 -4 -4 -10z"/>
<path d="M1270 1445 c0 -5 5 -17 10 -25 5 -8 10 -10 10 -5 0 6 -5 17 -10 25
-5 8 -10 11 -10 5z"/>
<path d="M996 1427 c3 -10 9 -15 12 -12 3 3 0 11 -7 18 -10 9 -11 8 -5 -6z"/>
<path d="M1596 1398 c3 -5 10 -6 15 -3 13 9 11 12 -6 12 -8 0 -12 -4 -9 -9z"/>
<path d="M1315 1381 c-3 -5 -2 -12 3 -15 5 -3 9 1 9 9 0 17 -3 19 -12 6z"/>
<path d="M1390 1381 c0 -6 4 -13 10 -16 6 -3 7 1 4 9 -7 18 -14 21 -14 7z"/>
<path d="M1555 1380 c-3 -5 -1 -10 4 -10 6 0 11 5 11 10 0 6 -2 10 -4 10 -3 0
-8 -4 -11 -10z"/>
<path d="M1215 1360 c-3 -5 -1 -10 4 -10 6 0 11 5 11 10 0 6 -2 10 -4 10 -3 0
-8 -4 -11 -10z"/>
<path d="M1420 1320 c-9 -6 -10 -10 -3 -10 6 0 15 5 18 10 8 12 4 12 -15 0z"/>
<path d="M1470 1321 c0 -6 4 -12 8 -15 5 -3 9 1 9 9 0 8 -4 15 -9 15 -4 0 -8
-4 -8 -9z"/>
<path d="M1013 1285 c-3 -9 -3 -18 -1 -21 3 -3 8 4 11 16 6 23 -1 27 -10 5z"/>
<path d="M1130 1286 c0 -2 7 -7 16 -10 8 -3 12 -2 9 4 -6 10 -25 14 -25 6z"/>
<path d="M1395 1269 c-4 -6 -5 -12 -2 -15 2 -3 7 2 10 11 7 17 1 20 -8 4z"/>
<path d="M1276 1227 c3 -10 9 -15 12 -12 3 3 0 11 -7 18 -10 9 -11 8 -5 -6z"/>
<path d="M1070 1225 c0 -5 5 -17 10 -25 5 -8 10 -10 10 -5 0 6 -5 17 -10 25
-5 8 -10 11 -10 5z"/>
<path d="M1327 1199 c7 -7 15 -10 18 -7 3 3 -2 9 -12 12 -14 6 -15 5 -6 -5z"/>
<path d="M1230 1179 c0 -5 5 -7 10 -4 6 3 10 8 10 11 0 2 -4 4 -10 4 -5 0 -10
-5 -10 -11z"/>
<path d="M1510 1140 c0 -5 5 -10 11 -10 5 0 7 5 4 10 -3 6 -8 10 -11 10 -2 0
-4 -4 -4 -10z"/>
<path d="M1310 1096 c0 -2 8 -10 18 -17 15 -13 16 -12 3 4 -13 16 -21 21 -21
13z"/>
<path d="M1153 1055 c0 -8 4 -12 9 -9 5 3 6 10 3 15 -9 13 -12 11 -12 -6z"/>
<path d="M1450 1046 c0 -2 7 -7 16 -10 8 -3 12 -2 9 4 -6 10 -25 14 -25 6z"/>
<path d="M1242 1004 c10 -10 20 -16 22 -13 3 3 -5 11 -17 18 -21 13 -21 12 -5
-5z"/>
<path d="M1155 951 c-3 -5 -2 -12 3 -15 5 -3 9 1 9 9 0 17 -3 19 -12 6z"/>
<path d="M1235 949 c-4 -6 -5 -12 -2 -15 2 -3 7 2 10 11 7 17 1 20 -8 4z"/>
<path d="M1396 893 c-6 -14 -5 -15 5 -6 7 7 10 15 7 18 -3 3 -9 -2 -12 -12z"/>
<path d="M1295 880 c3 -5 8 -10 11 -10 2 0 4 5 4 10 0 6 -5 10 -11 10 -5 0 -7
-4 -4 -10z"/>
<path d="M1175 871 c-3 -5 -2 -12 3 -15 5 -3 9 1 9 9 0 17 -3 19 -12 6z"/>
<path d="M1295 840 c-3 -5 -1 -10 4 -10 6 0 11 5 11 10 0 6 -2 10 -4 10 -3 0
-8 -4 -11 -10z"/>
<path d="M1210 806 c0 -2 7 -7 16 -10 8 -3 12 -2 9 4 -6 10 -25 14 -25 6z"/>
<path d="M1226 738 c3 -5 10 -6 15 -3 13 9 11 12 -6 12 -8 0 -12 -4 -9 -9z"/>
<path d="M1270 720 c0 -5 5 -10 11 -10 5 0 7 5 4 10 -3 6 -8 10 -11 10 -2 0
-4 -4 -4 -10z"/>
<path d="M2215 1671 c-3 -5 -2 -12 3 -15 5 -3 9 1 9 9 0 17 -3 19 -12 6z"/>
<path d="M1905 1650 c-3 -6 1 -7 9 -4 18 7 21 14 7 14 -6 0 -13 -4 -16 -10z"/>
<path d="M1935 1600 c3 -5 8 -10 11 -10 2 0 4 5 4 10 0 6 -5 10 -11 10 -5 0
-7 -4 -4 -10z"/>
<path d="M2042 1564 c10 -10 20 -16 22 -13 3 3 -5 11 -17 18 -21 13 -21 12 -5
-5z"/>
<path d="M1935 1560 c-3 -5 -1 -10 4 -10 6 0 11 5 11 10 0 6 -2 10 -4 10 -3 0
-8 -4 -11 -10z"/>
<path d="M2115 1540 c-3 -5 -1 -10 4 -10 6 0 11 5 11 10 0 6 -2 10 -4 10 -3 0
-8 -4 -11 -10z"/>
<path d="M2035 1509 c-4 -6 -5 -12 -2 -15 2 -3 7 2 10 11 7 17 1 20 -8 4z"/>
<path d="M2035 1460 c-3 -5 -1 -10 4 -10 6 0 11 5 11 10 0 6 -2 10 -4 10 -3 0
-8 -4 -11 -10z"/>
<path d="M1915 1429 c-4 -6 -5 -12 -2 -15 2 -3 7 2 10 11 7 17 1 20 -8 4z"/>
<path d="M1953 1325 c0 -8 4 -15 9 -15 4 0 8 4 8 9 0 6 -4 12 -8 15 -5 3 -9
-1 -9 -9z"/>
<path d="M1875 1269 c-4 -6 -5 -12 -2 -15 2 -3 7 2 10 11 7 17 1 20 -8 4z"/>
<path d="M1807 1199 c7 -7 15 -10 18 -7 3 3 -2 9 -12 12 -14 6 -15 5 -6 -5z"/>
<path d="M1755 1149 c-4 -6 -5 -12 -2 -15 2 -3 7 2 10 11 7 17 1 20 -8 4z"/>
<path d="M1756 1095 c-9 -26 -7 -32 5 -12 6 10 9 21 6 23 -2 3 -7 -2 -11 -11z"/>
<path d="M1689 1043 c-13 -16 -12 -17 4 -4 16 13 21 21 13 21 -2 0 -10 -8 -17
-17z"/>
<path d="M1660 966 c0 -2 7 -7 16 -10 8 -3 12 -2 9 4 -6 10 -25 14 -25 6z"/>
</g>
</svg>
